<svg width="21" height="21" viewBox="0 0 21 21" fill="none" xmlns="http://www.w3.org/2000/svg">
<path d="M14.6297 9.44995C13.275 9.44995 13.0875 10.8 13.0875 10.8H15.9656C15.9656 10.8 15.9844 9.44995 14.6297 9.44995Z" fill="white"/>
<path d="M8.10005 10.8001H5.55005V13.1438H7.97349C8.33911 13.1344 9.02349 13.0313 9.02349 12.0047C9.02349 10.786 8.10005 10.8001 8.10005 10.8001Z" fill="white"/>
<path d="M10.5 0C4.70156 0 0 4.70156 0 10.5C0 16.2984 4.70156 21 10.5 21C16.2984 21 21 16.2984 21 10.5C21 4.70156 16.2984 0 10.5 0ZM12.7125 6.45H16.3266V7.52813H12.7125V6.45ZM10.8844 12.1125C10.8844 14.7844 8.1 14.7 8.1 14.7H3.54375V5.93438H8.1C9.4875 5.93438 10.5797 6.69844 10.5797 8.26875C10.5797 9.83906 9.24375 9.9375 9.24375 9.9375C11.0062 9.9375 10.8844 12.1125 10.8844 12.1125ZM17.6437 11.9672H13.1016C13.1016 13.5937 14.6437 13.4906 14.6437 13.4906C16.1016 13.4906 16.05 12.5484 16.05 12.5484H17.5922C17.5922 15.0516 14.5922 14.8781 14.5922 14.8781C10.9969 14.8781 11.2266 11.5266 11.2266 11.5266C11.2266 11.5266 11.2219 8.16094 14.5922 8.16094C18.1406 8.16563 17.6437 11.9672 17.6437 11.9672Z" fill="white"/>
<path d="M8.7188 8.40474C8.7188 7.49536 8.10005 7.49536 8.10005 7.49536H5.55005V9.45005H7.94067C8.35317 9.45005 8.7188 9.31411 8.7188 8.40474Z" fill="white"/>
</svg>
