<svg width="64" height="63" viewBox="0 0 64 63" fill="none" xmlns="http://www.w3.org/2000/svg">
<path d="M54.28 22.6775L37.423 30.7674C36.6765 31.1257 36.664 32.1843 37.4019 32.5601L54.0635 41.0451L36.4234 34.8458C35.6421 34.5713 34.8848 35.311 35.1409 36.0985L40.9226 53.8798L32.8327 37.0229C32.4744 36.2763 31.4158 36.2638 31.04 37.0017L22.555 53.6633L28.7543 36.0232C29.0288 35.2419 28.2891 34.4846 27.5016 34.7407L9.72032 40.5224L26.5772 32.4325C27.3238 32.0742 27.3363 31.0156 26.5984 30.6398L9.93683 22.1548L27.5769 28.3541C28.3581 28.6286 29.1155 27.8889 28.8594 27.1014L23.0777 9.32012L31.1676 26.177C31.5259 26.9236 32.5845 26.9361 32.9603 26.1982L41.4453 9.53663L35.246 27.1767C34.9715 27.958 35.7112 28.7153 36.4987 28.4592L54.28 22.6775Z" fill="#F7F5F0"/>
</svg>
