<svg width="625" height="123" viewBox="0 0 625 123" fill="none" xmlns="http://www.w3.org/2000/svg">
<path d="M78.247 42.8846H72.7423V4.92843H59.1728V-0.000118269H91.8165V4.92843H78.247V42.8846ZM101.917 6.91265H96.3485V-0.000118269H101.917V6.91265ZM101.917 42.8846H96.3485V11.9052H101.917V42.8846ZM122.513 43.5247C113.744 43.5247 107.663 37.252 107.663 27.3949C107.663 17.6018 113.68 11.2651 122.193 11.2651C130.962 11.2651 136.274 17.0898 136.274 26.1788C136.274 27.1389 136.146 28.099 136.018 28.6751H113.04C113.36 35.2038 117.008 38.9162 122.513 38.9162C128.722 38.9162 131.218 35.5238 132.434 32.8355L135.826 36.676C133.522 40.3884 129.234 43.5247 122.513 43.5247ZM122.193 15.9377C117.2 15.9377 113.872 18.882 113.168 24.6426H131.282C130.706 18.946 127.377 15.9377 122.193 15.9377ZM147.94 42.8846H142.371V11.9052H147.94V20.1621C149.156 15.3616 152.484 11.2651 158.565 11.2651C164.646 11.2651 168.422 14.9135 168.422 21.5063V42.8846H162.917V22.8504C162.917 18.818 161.317 16.0017 156.069 16.0017C150.116 16.0017 147.94 20.1621 147.94 25.3467V42.8846ZM188.788 43.5247C180.019 43.5247 173.938 37.252 173.938 27.3949C173.938 17.6018 179.955 11.2651 188.468 11.2651C197.237 11.2651 202.549 17.0898 202.549 26.1788C202.549 27.1389 202.421 28.099 202.293 28.6751H179.315C179.635 35.2038 183.283 38.9162 188.788 38.9162C194.996 38.9162 197.493 35.5238 198.709 32.8355L202.101 36.676C199.797 40.3884 195.508 43.5247 188.788 43.5247ZM188.468 15.9377C183.475 15.9377 180.147 18.882 179.443 24.6426H197.557C196.981 18.946 193.652 15.9377 188.468 15.9377ZM220.179 43.5247C213.714 43.5247 207.826 40.7084 205.714 34.9478L209.746 31.8114C210.834 35.3318 214.227 38.8522 220.371 38.8522C224.02 38.8522 226.452 37.444 226.452 34.6917C226.452 31.8754 223.636 30.9793 219.987 30.1472L215.891 29.1871C211.474 28.163 206.674 26.0508 206.674 20.3541C206.674 14.7215 211.026 11.2651 217.747 11.2651C224.276 11.2651 228.82 14.7215 230.548 18.818L226.324 21.9543C224.788 18.3059 221.843 16.0017 217.427 16.0017C214.227 16.0017 211.922 17.4098 211.922 20.0341C211.922 22.7864 213.971 23.7465 218.195 24.7706L222.163 25.7947C229.14 27.4589 231.444 30.3393 231.444 34.6277C231.444 40.7724 226.196 43.5247 220.179 43.5247ZM259.708 43.5247C253.627 43.5247 249.851 39.8763 249.851 33.3476V11.9052H255.356V32.0034C255.356 35.9719 256.956 38.8522 262.204 38.8522C268.221 38.8522 270.397 34.6277 270.397 29.5072V11.9052H275.902V42.8846H270.397V34.4357C269.245 39.3003 265.917 43.5247 259.708 43.5247ZM288.968 42.8846H283.399V11.9052H288.968V20.1621C290.184 15.3616 293.512 11.2651 299.593 11.2651C305.674 11.2651 309.45 14.9135 309.45 21.5063V42.8846H303.946V22.8504C303.946 18.818 302.345 16.0017 297.097 16.0017C291.144 16.0017 288.968 20.1621 288.968 25.3467V42.8846ZM335.428 54.79H329.859V11.9052H335.428V19.8421C336.516 15.1696 339.46 11.2011 345.413 11.2011C353.222 11.2011 358.087 17.5378 358.087 27.3309C358.087 37.124 353.222 43.5247 345.413 43.5247C339.46 43.5247 336.516 39.5563 335.428 34.8838V54.79ZM335.428 29.5712C335.428 34.6917 337.604 38.8522 343.493 38.8522C348.421 38.8522 352.454 35.2678 352.454 27.3309C352.454 19.458 348.421 15.8736 343.493 15.8736C337.604 15.8736 335.428 20.0341 335.428 25.1547V29.5712ZM369.284 42.8846H363.716V11.9052H369.284V20.1621C370.5 15.3616 373.701 11.2011 378.949 11.2011C382.278 11.2011 385.478 13.5694 385.478 17.9219C385.478 20.5462 384.774 22.4664 384.262 23.2345H378.181C379.205 22.3384 380.037 20.4182 380.037 18.69C380.037 16.8978 379.077 15.3616 376.837 15.3616C372.869 15.3616 369.284 20.0341 369.284 25.3467V42.8846ZM401.363 43.5247C392.786 43.5247 386.77 37.188 386.77 27.3949C386.77 17.6018 392.786 11.2651 401.363 11.2651C409.94 11.2651 416.021 17.6018 416.021 27.3949C416.021 37.188 409.94 43.5247 401.363 43.5247ZM401.363 38.8522C406.676 38.8522 410.388 35.2038 410.388 27.3949C410.388 19.5221 406.676 15.9377 401.363 15.9377C396.115 15.9377 392.466 19.5221 392.466 27.3949C392.466 35.2038 396.115 38.8522 401.363 38.8522ZM425.911 52.9978C421.494 52.9978 418.294 50.5655 416.95 48.0052L419.958 43.7807C421.43 46.277 423.03 48.1332 425.975 48.1332C428.471 48.1332 430.135 46.9171 431.351 43.1407L431.991 41.1565L428.535 41.2205L418.102 11.9052H424.054L430.711 31.8114L432.887 38.4682L435.064 31.8114L441.656 11.9052H447.609L435.704 45.4449C433.719 51.1416 430.263 52.9978 425.911 52.9978ZM463.406 43.5247C454.637 43.5247 448.556 37.252 448.556 27.3949C448.556 17.6018 454.573 11.2651 463.086 11.2651C471.855 11.2651 477.167 17.0898 477.167 26.1788C477.167 27.1389 477.039 28.099 476.911 28.6751H453.933C454.253 35.2038 457.901 38.9162 463.406 38.9162C469.614 38.9162 472.111 35.5238 473.327 32.8355L476.719 36.676C474.415 40.3884 470.126 43.5247 463.406 43.5247ZM463.086 15.9377C458.093 15.9377 454.765 18.882 454.061 24.6426H472.175C471.599 18.946 468.27 15.9377 463.086 15.9377ZM496.754 43.5247C487.857 43.5247 482.161 37.252 482.161 27.3949C482.161 17.6018 487.857 11.2651 496.754 11.2651C504.819 11.2651 509.556 15.9377 511.028 22.1463L505.587 24.3866C504.947 19.458 502.387 15.9377 496.818 15.9377C491.186 15.9377 487.793 20.0981 487.793 27.3949C487.793 34.6917 491.186 38.9162 496.818 38.9162C502.387 38.9162 504.947 35.3318 505.587 30.4033L511.028 32.6435C509.556 38.8522 504.819 43.5247 496.754 43.5247ZM526.614 43.5887C521.558 43.5887 517.973 40.2604 517.973 34.9478V16.2577H512.981V11.9052H517.973V7.93676L523.542 3.84031V11.9052H533.719V16.2577H523.542V33.2836C523.542 37.252 525.398 38.2121 527.83 38.2121C530.583 38.2121 532.503 35.9079 533.335 33.9877L535.191 39.4923C533.847 41.6045 530.903 43.5887 526.614 43.5887ZM549.955 43.5247C541.378 43.5247 535.361 37.188 535.361 27.3949C535.361 17.6018 541.378 11.2651 549.955 11.2651C558.532 11.2651 564.612 17.6018 564.612 27.3949C564.612 37.188 558.532 43.5247 549.955 43.5247ZM549.955 38.8522C555.267 38.8522 558.98 35.2038 558.98 27.3949C558.98 19.5221 555.267 15.9377 549.955 15.9377C544.706 15.9377 541.058 19.5221 541.058 27.3949C541.058 35.2038 544.706 38.8522 549.955 38.8522ZM14.8497 122.534C6.08068 122.534 2.6229e-06 116.261 2.6229e-06 106.404C2.6229e-06 96.6106 6.01667 90.2739 14.5296 90.2739C23.2986 90.2739 28.6112 96.0986 28.6112 105.188C28.6112 106.148 28.4832 107.108 28.3552 107.684H5.3766C5.69664 114.213 9.34504 117.925 14.8497 117.925C21.0583 117.925 23.5546 114.533 24.7708 111.844L28.1631 115.685C25.8589 119.397 21.5704 122.534 14.8497 122.534ZM14.5296 94.9464C9.53706 94.9464 6.20869 97.8908 5.50461 103.651H23.6186C23.0426 97.9548 19.7142 94.9464 14.5296 94.9464ZM40.2765 121.893H34.7079V90.914H40.2765V99.1709C41.4926 94.3704 44.821 90.2739 50.9017 90.2739C56.9823 90.2739 60.7588 93.9223 60.7588 100.515V121.893H55.2541V101.859C55.2541 97.8268 53.654 95.0104 48.4054 95.0104C42.4527 95.0104 40.2765 99.1709 40.2765 104.355V121.893ZM86.7366 121.893H81.168V90.914H86.7366V99.1069C87.9528 94.3704 91.1531 90.2739 96.7217 90.2739C102.418 90.2739 105.555 93.5383 105.875 99.3629C107.091 94.4344 110.291 90.2739 115.924 90.2739C122.005 90.2739 125.141 93.9223 125.141 100.451V121.893H119.636V101.795C119.636 97.2507 117.46 95.0104 112.852 95.0104C108.115 95.0104 105.939 99.1709 105.939 104.355V121.893H100.37V101.795C100.37 97.2507 98.2579 95.0104 93.5854 95.0104C88.9129 95.0104 86.7366 99.1709 86.7366 104.355V121.893ZM145.524 122.534C136.755 122.534 130.675 116.261 130.675 106.404C130.675 96.6106 136.691 90.2739 145.204 90.2739C153.973 90.2739 159.286 96.0986 159.286 105.188C159.286 106.148 159.158 107.108 159.03 107.684H136.051C136.371 114.213 140.02 117.925 145.524 117.925C151.733 117.925 154.229 114.533 155.445 111.844L158.838 115.685C156.533 119.397 152.245 122.534 145.524 122.534ZM145.204 94.9464C140.212 94.9464 136.883 97.8908 136.179 103.651H154.293C153.717 97.9548 150.389 94.9464 145.204 94.9464ZM170.951 121.893H165.382V90.914H170.951V99.1709C172.167 94.3704 175.496 90.2739 181.576 90.2739C187.657 90.2739 191.433 93.9223 191.433 100.515V121.893H185.929V101.859C185.929 97.8268 184.328 95.0104 179.08 95.0104C173.127 95.0104 170.951 99.1709 170.951 104.355V121.893ZM208.233 122.598C203.176 122.598 199.592 119.269 199.592 113.957V95.2665H194.599V90.914H199.592V86.9455L205.16 82.8491V90.914H215.337V95.2665H205.16V112.292C205.16 116.261 207.016 117.221 209.449 117.221C212.201 117.221 214.121 114.917 214.953 112.996L216.81 118.501C215.465 120.613 212.521 122.598 208.233 122.598ZM232.341 122.534C223.572 122.534 217.492 116.261 217.492 106.404C217.492 96.6106 223.508 90.2739 232.021 90.2739C240.79 90.2739 246.103 96.0986 246.103 105.188C246.103 106.148 245.975 107.108 245.847 107.684H222.868C223.188 114.213 226.837 117.925 232.341 117.925C238.55 117.925 241.046 114.533 242.262 111.844L245.655 115.685C243.351 119.397 239.062 122.534 232.341 122.534ZM232.021 94.9464C227.029 94.9464 223.7 97.8908 222.996 103.651H241.11C240.534 97.9548 237.206 94.9464 232.021 94.9464ZM265.318 108.9H260.069V106.724C260.069 96.4826 271.591 96.7386 271.591 89.2498C271.591 85.9214 269.35 83.6172 264.422 83.6172C257.893 83.6172 253.989 87.7776 255.781 96.2266L250.66 92.9622C248.996 84.5773 254.949 78.3686 264.806 78.3686C272.359 78.3686 277.607 81.5689 277.607 88.9938C277.607 99.0429 265.318 98.9789 265.318 107.364V108.9ZM266.022 121.893H259.301V113.573H266.022V121.893Z" fill="#F7F5F0"/>
<path d="M315.984 122.405C302.99 122.405 295.885 112.74 295.885 100.387C295.885 88.0337 302.99 78.3686 315.984 78.3686C325.585 78.3686 332.049 83.4892 334.802 92.3221L329.809 95.5865C328.401 88.4177 324.177 83.6172 316.048 83.6172C306.255 83.6172 301.774 90.5939 301.774 100.387C301.774 110.18 306.255 117.157 316.048 117.157C324.177 117.157 328.401 112.356 329.809 105.188L334.802 108.452C332.049 117.285 325.585 122.405 315.984 122.405ZM352.934 122.534C344.357 122.534 338.341 116.197 338.341 106.404C338.341 96.6106 344.357 90.2739 352.934 90.2739C361.511 90.2739 367.592 96.6106 367.592 106.404C367.592 116.197 361.511 122.534 352.934 122.534ZM352.934 117.861C358.247 117.861 361.959 114.213 361.959 106.404C361.959 98.5308 358.247 94.9464 352.934 94.9464C347.686 94.9464 344.037 98.5308 344.037 106.404C344.037 114.213 347.686 117.861 352.934 117.861ZM379.192 121.893H373.623V90.914H379.192V99.1709C380.408 94.3704 383.736 90.2739 389.817 90.2739C395.898 90.2739 399.674 93.9223 399.674 100.515V121.893H394.169V101.859C394.169 97.8268 392.569 95.0104 387.321 95.0104C381.368 95.0104 379.192 99.1709 379.192 104.355V121.893ZM416.473 122.598C411.417 122.598 407.832 119.269 407.832 113.957V95.2665H402.84V90.914H407.832V86.9455L413.401 82.8491V90.914H423.578V95.2665H413.401V112.292C413.401 116.261 415.257 117.221 417.689 117.221C420.442 117.221 422.362 114.917 423.194 112.996L425.05 118.501C423.706 120.613 420.762 122.598 416.473 122.598ZM442.344 86.8815H437.096L442.344 79.3287H449.641L442.344 86.8815ZM435.047 122.534C429.799 122.534 426.854 119.525 426.854 115.429C426.854 111.268 429.991 108.644 434.407 106.66L445.609 101.667C445.417 98.0188 443.688 95.3305 438.824 95.3305C434.407 95.3305 431.463 97.8908 429.863 101.283L426.086 97.3787C427.943 94.1783 432.551 90.2739 439.464 90.2739C447.081 90.2739 451.177 94.8184 451.177 102.179V114.917C451.177 116.389 451.753 116.837 452.905 116.837H454.89V121.893H451.305C448.105 121.893 445.801 120.357 445.801 116.005V113.829C444.776 117.925 441.448 122.534 435.047 122.534ZM432.487 114.533C432.487 116.645 433.959 117.925 436.84 117.925C442.088 117.925 445.801 114.469 445.801 109.988V105.7L436.776 109.924C433.831 111.332 432.487 112.612 432.487 114.533ZM473.118 122.534C464.221 122.534 458.524 116.261 458.524 106.404C458.524 96.6106 464.221 90.2739 473.118 90.2739C481.183 90.2739 485.919 94.9464 487.392 101.155L481.951 103.395C481.311 98.4668 478.751 94.9464 473.182 94.9464C467.549 94.9464 464.157 99.1069 464.157 106.404C464.157 113.701 467.549 117.925 473.182 117.925C478.751 117.925 481.311 114.341 481.951 109.412L487.392 111.652C485.919 117.861 481.183 122.534 473.118 122.534ZM502.978 122.598C497.921 122.598 494.337 119.269 494.337 113.957V95.2665H489.344V90.914H494.337V86.9455L499.906 82.8491V90.914H510.083V95.2665H499.906V112.292C499.906 116.261 501.762 117.221 504.194 117.221C506.946 117.221 508.867 114.917 509.699 112.996L511.555 118.501C510.211 120.613 507.266 122.598 502.978 122.598ZM521.552 122.534C516.303 122.534 513.359 119.525 513.359 115.429C513.359 111.268 516.495 108.644 520.912 106.66L532.113 101.667C531.921 98.0188 530.193 95.3305 525.328 95.3305C520.912 95.3305 517.968 97.8908 516.367 101.283L512.591 97.3787C514.447 94.1783 519.056 90.2739 525.968 90.2739C533.585 90.2739 537.682 94.8184 537.682 102.179V114.917C537.682 116.389 538.258 116.837 539.41 116.837H541.394V121.893H537.81C534.609 121.893 532.305 120.357 532.305 116.005V113.829C531.281 117.925 527.953 122.534 521.552 122.534ZM518.992 114.533C518.992 116.645 520.464 117.925 523.344 117.925C528.593 117.925 532.305 114.469 532.305 109.988V105.7L523.28 109.924C520.336 111.332 518.992 112.612 518.992 114.533ZM552.451 121.893H546.882V90.914H552.451V99.1069C553.667 94.3704 556.867 90.2739 562.436 90.2739C568.133 90.2739 571.269 93.5383 571.589 99.3629C572.805 94.4344 576.005 90.2739 581.638 90.2739C587.719 90.2739 590.855 93.9223 590.855 100.451V121.893H585.351V101.795C585.351 97.2507 583.174 95.0104 578.566 95.0104C573.829 95.0104 571.653 99.1709 571.653 104.355V121.893H566.084V101.795C566.084 97.2507 563.972 95.0104 559.3 95.0104C554.627 95.0104 552.451 99.1709 552.451 104.355V121.893ZM611.238 122.534C602.469 122.534 596.389 116.261 596.389 106.404C596.389 96.6106 602.405 90.2739 610.918 90.2739C619.687 90.2739 625 96.0986 625 105.188C625 106.148 624.872 107.108 624.744 107.684H601.765C602.085 114.213 605.734 117.925 611.238 117.925C617.447 117.925 619.943 114.533 621.16 111.844L624.552 115.685C622.248 119.397 617.959 122.534 611.238 122.534ZM610.918 94.9464C605.926 94.9464 602.597 97.8908 601.893 103.651H620.007C619.431 97.9548 616.103 94.9464 610.918 94.9464Z" fill="url(#paint0_linear_145_792)"/>
<defs>
<linearGradient id="paint0_linear_145_792" x1="273.696" y1="62.9255" x2="644.735" y2="63.8871" gradientUnits="userSpaceOnUse">
<stop stop-color="#CC001B"/>
<stop offset="0.504808" stop-color="#FF7F11"/>
<stop offset="1" stop-color="#FFD358"/>
</linearGradient>
</defs>
</svg>
