<svg width="865" height="70" viewBox="0 0 865 70" fill="none" xmlns="http://www.w3.org/2000/svg">
<path d="M20.3308 55.2294C6.4034 55.2294 1.19273e-06 47.8654 1.19273e-06 32.017V0.800448H6.9637V32.017C6.9637 43.8633 10.7257 48.5858 20.4108 48.5858C30.2561 48.5858 33.938 43.8633 33.938 32.017V0.800448H40.8217V32.017C40.8217 47.8654 34.5784 55.2294 20.3308 55.2294ZM57.5093 54.4289H50.5456V15.6884H57.5093V26.0138C59.0301 20.0107 63.1923 14.8879 70.7964 14.8879C78.4004 14.8879 83.1229 19.4504 83.1229 27.6947V54.4289H76.2392V29.3756C76.2392 24.3329 74.2382 20.8111 67.6747 20.8111C60.2307 20.8111 57.5093 26.0138 57.5093 32.4973V54.4289ZM126.655 54.4289H117.85L103.843 15.6884H111.367L119.051 38.6606L122.413 49.3062L125.694 38.6606L133.298 15.6884H140.742L126.655 54.4289ZM152.241 9.44504H145.277V0.800448H152.241V9.44504ZM152.241 54.4289H145.277V15.6884H152.241V54.4289ZM176.556 55.2294C168.471 55.2294 161.107 51.7075 158.466 44.5037L163.509 40.5816C164.869 44.9839 169.112 49.3863 176.796 49.3863C181.358 49.3863 184.4 47.6253 184.4 44.1835C184.4 40.6616 180.878 39.541 176.316 38.5005L171.193 37.2998C165.67 36.0192 159.667 33.3777 159.667 26.254C159.667 19.2102 165.11 14.8879 173.514 14.8879C181.678 14.8879 187.361 19.2102 189.523 24.3329L184.24 28.255C182.319 23.6926 178.637 20.8111 173.114 20.8111C169.112 20.8111 166.23 22.572 166.23 25.8538C166.23 29.2956 168.792 30.4962 174.074 31.7769L179.037 33.0576C187.762 35.1387 190.643 38.7406 190.643 44.1034C190.643 51.7875 184.08 55.2294 176.556 55.2294ZM209.621 55.3094C203.298 55.3094 198.816 51.1472 198.816 44.5037V21.1312H192.572V15.6884H198.816V10.7257L205.779 5.603V15.6884H218.506V21.1312H205.779V42.4226C205.779 47.3852 208.101 48.5858 211.142 48.5858C214.584 48.5858 216.985 45.7043 218.026 43.303L220.347 50.1867C218.666 52.8281 214.984 55.3094 209.621 55.3094ZM232.849 55.2294C226.285 55.2294 222.603 51.4674 222.603 46.3446C222.603 41.1419 226.525 37.8601 232.048 35.3788L246.056 29.1355C245.816 24.5731 243.654 21.2113 237.571 21.2113C232.048 21.2113 228.366 24.413 226.365 28.6552L221.643 23.7726C223.964 19.7705 229.727 14.8879 238.372 14.8879C247.897 14.8879 253.019 20.5709 253.019 29.7758V45.7043C253.019 47.5453 253.74 48.1056 255.181 48.1056H257.662V54.4289H253.179C249.177 54.4289 246.296 52.5079 246.296 47.065V44.3436C245.015 49.4663 240.853 55.2294 232.849 55.2294ZM229.647 45.224C229.647 47.8654 231.488 49.4663 235.09 49.4663C241.653 49.4663 246.296 45.144 246.296 39.541V34.1782L235.01 39.461C231.328 41.2219 229.647 42.8228 229.647 45.224ZM293.229 54.4289H260.011V48.7459L280.662 25.4535L284.504 21.6115L277.3 21.9317H261.612V15.6884H292.428V21.4514L271.938 44.2635L267.935 48.5858L276.1 48.2657H293.229V54.4289ZM312.542 55.2294C301.817 55.2294 294.293 47.3051 294.293 35.0586C294.293 22.8121 301.817 14.8879 312.542 14.8879C323.268 14.8879 330.872 22.8121 330.872 35.0586C330.872 47.3051 323.268 55.2294 312.542 55.2294ZM312.542 49.3863C319.186 49.3863 323.828 44.8238 323.828 35.0586C323.828 25.2134 319.186 20.731 312.542 20.731C305.979 20.731 301.416 25.2134 301.416 35.0586C301.416 44.8238 305.979 49.3863 312.542 49.3863ZM362.961 55.2294C356.398 55.2294 352.716 51.4674 352.716 46.3446C352.716 41.1419 356.638 37.8601 362.161 35.3788L376.169 29.1355C375.928 24.5731 373.767 21.2113 367.684 21.2113C362.161 21.2113 358.479 24.413 356.478 28.6552L351.756 23.7726C354.077 19.7705 359.84 14.8879 368.484 14.8879C378.009 14.8879 383.132 20.5709 383.132 29.7758V45.7043C383.132 47.5453 383.853 48.1056 385.293 48.1056H387.775V54.4289H383.292C379.29 54.4289 376.409 52.5079 376.409 47.065V44.3436C375.128 49.4663 370.966 55.2294 362.961 55.2294ZM359.76 45.224C359.76 47.8654 361.601 49.4663 365.203 49.4663C371.766 49.4663 376.409 45.144 376.409 39.541V34.1782L365.123 39.461C361.441 41.2219 359.76 42.8228 359.76 45.224ZM417.988 54.4289H411.025V15.6884H417.988V25.9338C419.509 20.0107 423.511 14.8879 430.475 14.8879C437.599 14.8879 441.521 18.9701 441.921 26.254C443.442 20.0907 447.444 14.8879 454.488 14.8879C462.092 14.8879 466.014 19.4504 466.014 27.6147V54.4289H459.13V29.2956C459.13 23.6126 456.409 20.8111 450.646 20.8111C444.722 20.8111 442.001 26.0138 442.001 32.4973V54.4289H435.037V29.2956C435.037 23.6126 432.396 20.8111 426.553 20.8111C420.71 20.8111 417.988 26.0138 417.988 32.4973V54.4289ZM482.135 9.44504H475.171V0.800448H482.135V9.44504ZM482.135 54.4289H475.171V15.6884H482.135V54.4289ZM849.632 38.1803H843.068V35.4589C843.068 22.6521 857.476 22.9722 857.476 13.6072C857.476 9.44504 854.675 6.56351 848.511 6.56351C840.347 6.56351 835.464 11.7663 837.706 22.3319L831.302 18.2497C829.221 7.76415 836.665 2.38545e-05 848.991 2.38545e-05C858.437 2.38545e-05 865 4.00215 865 13.2871C865 25.8538 849.632 25.7737 849.632 36.2593V38.1803ZM850.512 54.4289H842.108V44.0234H850.512V54.4289Z" fill="#F7F5F0"/>
<path d="M514.752 69.3168H507.788V15.6884H514.752V25.6136C516.113 19.7705 519.795 14.8079 527.239 14.8079C537.004 14.8079 543.087 22.7321 543.087 34.9786C543.087 47.2251 537.004 55.2294 527.239 55.2294C519.795 55.2294 516.113 50.2667 514.752 44.4236V69.3168ZM514.752 37.7801C514.752 44.1835 517.474 49.3863 524.837 49.3863C531.001 49.3863 536.043 44.9039 536.043 34.9786C536.043 25.1334 531.001 20.651 524.837 20.651C517.474 20.651 514.752 25.8538 514.752 32.2572V37.7801ZM566.436 55.2294C555.711 55.2294 548.187 47.3051 548.187 35.0586C548.187 22.8121 555.711 14.8879 566.436 14.8879C577.162 14.8879 584.766 22.8121 584.766 35.0586C584.766 47.3051 577.162 55.2294 566.436 55.2294ZM566.436 49.3863C573.08 49.3863 577.722 44.8238 577.722 35.0586C577.722 25.2134 573.08 20.731 566.436 20.731C559.873 20.731 555.31 25.2134 555.31 35.0586C555.31 44.8238 559.873 49.3863 566.436 49.3863ZM599.272 54.4289H592.308V15.6884H599.272V26.0138C600.793 20.0107 604.795 14.8079 611.358 14.8079C615.521 14.8079 619.523 17.7695 619.523 23.2123C619.523 26.4941 618.642 28.8954 618.002 29.8559H610.398C611.679 28.7353 612.719 26.334 612.719 24.1729C612.719 21.9317 611.518 20.0107 608.717 20.0107C603.754 20.0107 599.272 25.8538 599.272 32.4973V54.4289ZM637.764 55.3094C631.441 55.3094 626.959 51.1472 626.959 44.5037V21.1312H620.715V15.6884H626.959V10.7257L633.922 5.603V15.6884H646.649V21.1312H633.922V42.4226C633.922 47.3852 636.244 48.5858 639.285 48.5858C642.727 48.5858 645.128 45.7043 646.169 43.303L648.49 50.1867C646.809 52.8281 643.127 55.3094 637.764 55.3094ZM660.992 55.2294C654.428 55.2294 650.746 51.4674 650.746 46.3446C650.746 41.1419 654.668 37.8601 660.191 35.3788L674.199 29.1355C673.958 24.5731 671.797 21.2113 665.714 21.2113C660.191 21.2113 656.509 24.413 654.508 28.6552L649.786 23.7726C652.107 19.7705 657.87 14.8879 666.515 14.8879C676.04 14.8879 681.162 20.5709 681.162 29.7758V45.7043C681.162 47.5453 681.883 48.1056 683.323 48.1056H685.805V54.4289H681.322C677.32 54.4289 674.439 52.5079 674.439 47.065V44.3436C673.158 49.4663 668.996 55.2294 660.992 55.2294ZM657.79 45.224C657.79 47.8654 659.631 49.4663 663.233 49.4663C669.796 49.4663 674.439 45.144 674.439 39.541V34.1782L663.153 39.461C659.471 41.2219 657.79 42.8228 657.79 45.224ZM701.579 54.4289H694.615V21.1312H688.292V15.6884H694.615V12.0864C694.615 4.32232 699.578 2.38545e-05 706.862 2.38545e-05C712.785 2.38545e-05 716.467 3.20172 718.068 5.68304L714.226 10.6457C712.705 7.84419 710.223 5.76308 706.782 5.76308C703.18 5.76308 701.579 7.84419 701.579 11.5261V15.6884H714.065V21.1312H701.579V54.4289ZM733.338 55.2294C722.612 55.2294 715.088 47.3051 715.088 35.0586C715.088 22.8121 722.612 14.8879 733.338 14.8879C744.063 14.8879 751.667 22.8121 751.667 35.0586C751.667 47.3051 744.063 55.2294 733.338 55.2294ZM733.338 49.3863C739.981 49.3863 744.623 44.8238 744.623 35.0586C744.623 25.2134 739.981 20.731 733.338 20.731C726.774 20.731 722.212 25.2134 722.212 35.0586C722.212 44.8238 726.774 49.3863 733.338 49.3863ZM766.329 54.4289H759.366V0.800448H766.329V54.4289ZM782.56 9.44504H775.596V0.800448H782.56V9.44504ZM782.56 54.4289H775.596V15.6884H782.56V54.4289ZM807.355 55.2294C796.629 55.2294 789.105 47.3051 789.105 35.0586C789.105 22.8121 796.629 14.8879 807.355 14.8879C818.081 14.8879 825.685 22.8121 825.685 35.0586C825.685 47.3051 818.081 55.2294 807.355 55.2294ZM807.355 49.3863C813.998 49.3863 818.641 44.8238 818.641 35.0586C818.641 25.2134 813.998 20.731 807.355 20.731C800.791 20.731 796.229 25.2134 796.229 35.0586C796.229 44.8238 800.791 49.3863 807.355 49.3863Z" fill="url(#paint0_linear_149_793)"/>
<defs>
<linearGradient id="paint0_linear_149_793" x1="499.229" y1="12.4066" x2="875.929" y2="12.4068" gradientUnits="userSpaceOnUse">
<stop stop-color="#CC001B"/>
<stop offset="0.504808" stop-color="#FF7F11"/>
<stop offset="1" stop-color="#FFD358"/>
</linearGradient>
</defs>
</svg>
